<svg width="38" height="38" viewBox="0 0 38 38" fill="none" xmlns="http://www.w3.org/2000/svg">
<path d="M35.2946 32.3231V14.8607H35.2934C34.3045 14.8607 33.3674 14.5379 32.5873 13.9934C32.1812 14.2786 31.7169 14.4874 31.2219 14.636V25.1784V25.7895C31.2219 26.6005 30.5639 27.2586 29.7528 27.2586H8.24719C7.43613 27.2586 6.7781 26.6005 6.7781 25.7895V25.1784V14.636C6.2819 14.4873 5.81884 14.2792 5.41281 13.9933C4.63256 14.5378 3.69555 14.8607 2.70664 14.8607H2.7054V32.3231C2.0066 32.3231 1.44124 32.8891 1.44124 33.5872C1.44124 34.2854 2.0066 34.8514 2.7054 34.8514H6.7781V36.4557C6.7781 37.2668 7.43613 37.9248 8.24719 37.9248H9.38305C10.1942 37.9248 10.8521 37.2668 10.8521 36.4557V34.8515H27.148V36.4558C27.148 37.2669 27.806 37.9249 28.6171 37.9249H29.753C30.564 37.9249 31.2221 37.2669 31.2221 36.4558V34.8515H35.2948C35.9936 34.8515 36.5588 34.2855 36.5588 33.5873C36.5587 32.8892 35.9934 32.3231 35.2946 32.3231ZM6.7781 29.7078H31.2219C31.5711 29.7078 31.854 29.9905 31.854 30.3399C31.854 30.6893 31.5711 30.972 31.2219 30.972H6.7781C6.42886 30.972 6.14606 30.6894 6.14606 30.3399C6.14606 29.9905 6.42886 29.7078 6.7781 29.7078Z" fill="white"/>
<path d="M37.9711 9.7182H0.028949C-0.163682 11.0299 0.620222 12.3181 1.92756 12.7095C2.18686 12.7866 2.44858 12.8236 2.70664 12.8236C3.87565 12.8236 4.95589 12.062 5.30778 10.8843L5.44984 10.4083C5.54732 11.2737 6.05348 12.0435 6.80782 12.4705C7.05102 12.6082 7.3164 12.7131 7.60526 12.7706C7.78428 12.8064 7.9633 12.8236 8.13858 12.8236C9.40771 12.8236 10.5423 11.9292 10.7989 10.6373L10.8668 10.2997C10.931 11.223 11.4655 12.0305 12.2496 12.4705C12.5643 12.6477 12.9149 12.7711 13.2988 12.8094C13.3902 12.8187 13.4816 12.823 13.5718 12.823C14.9494 12.823 16.1309 11.7773 16.2703 10.3761L16.2901 10.1731C16.3148 11.1625 16.8716 12.012 17.6813 12.4675C18.0728 12.6872 18.5184 12.823 18.9999 12.823C19.4814 12.823 19.927 12.6871 20.3184 12.4675C21.1282 12.012 21.6849 11.1625 21.7097 10.1731L21.7295 10.3761C21.8689 11.7773 23.0492 12.823 24.428 12.823C24.5182 12.823 24.6096 12.8186 24.701 12.8094C25.0836 12.7711 25.4354 12.6477 25.7502 12.4711C26.533 12.0311 27.0687 11.223 27.1329 10.2997L27.2008 10.6373C27.4576 11.9292 28.5921 12.8236 29.8612 12.8236C30.0365 12.8236 30.2156 12.8064 30.3945 12.7706C30.6834 12.7131 30.9487 12.6081 31.1908 12.471C31.9462 12.0434 32.4524 11.2743 32.5501 10.4082L32.692 10.8842C33.0437 12.0619 34.124 12.8236 35.2931 12.8236C35.5511 12.8236 35.8129 12.7865 36.0722 12.7094C37.3799 12.3181 38.1637 11.0299 37.9711 9.7182Z" fill="white"/>
<path d="M35.6608 1.84221C35.3344 0.74905 34.329 0 33.1881 0H4.81204C3.67119 0 2.66572 0.74905 2.33935 1.84221L0.364883 8.45428H37.6353L35.6608 1.84221Z" fill="white"/>
<g clip-path="url(#clip0_7_8)">
<path d="M18.4952 22.5089C18.6291 22.5089 18.7575 22.4557 18.8521 22.361C18.9468 22.2663 19 22.1379 19 22.004C19 21.8701 18.9468 21.7417 18.8521 21.6471C18.7575 21.5524 18.6291 21.4992 18.4952 21.4992H17.2079L16.6273 19.4546C16.5862 19.3183 16.503 19.1985 16.3897 19.1124C16.2763 19.0262 16.1386 18.9781 15.9963 18.975H12.9673C12.8263 18.983 12.6909 19.0329 12.5784 19.1183C12.466 19.2038 12.3817 19.3209 12.3362 19.4546L11.7557 21.4992H10.4179C10.284 21.4992 10.1556 21.5524 10.0609 21.6471C9.96624 21.7417 9.91306 21.8701 9.91306 22.004C9.91306 22.1379 9.96624 22.2663 10.0609 22.361C10.1556 22.4557 10.284 22.5089 10.4179 22.5089H11.478C11.575 23.0724 11.8287 23.5973 12.21 24.0234H11.4275C11.2865 24.0313 11.1511 24.0812 11.0387 24.1667C10.9263 24.2521 10.8419 24.3692 10.7965 24.5029L10.0393 27.5572C10.0189 27.6147 10.0135 27.6764 10.0235 27.7366C10.0334 27.7968 10.0585 27.8535 10.0963 27.9014C10.1341 27.9493 10.1834 27.9868 10.2397 28.0105C10.2959 28.0341 10.3572 28.0432 10.4179 28.0368H18.4952C18.5554 28.0414 18.6158 28.0311 18.6711 28.0069C18.7264 27.9827 18.7749 27.9452 18.8123 27.8979C18.8497 27.8505 18.8749 27.7946 18.8856 27.7352C18.8963 27.6758 18.8923 27.6146 18.8738 27.5572L18.1166 24.5029C18.0755 24.3666 17.9923 24.2468 17.8789 24.1607C17.7656 24.0745 17.6279 24.0265 17.4855 24.0234H16.703C17.0844 23.5973 17.3381 23.0724 17.435 22.5089H18.4952ZM14.4565 24.0234C14.0113 24.0191 13.5798 23.8686 13.2285 23.5949C12.8773 23.3212 12.6258 22.9396 12.5129 22.5089H16.4254C16.3034 22.9393 16.0461 23.319 15.6915 23.5918C15.3369 23.8646 14.9039 24.0159 14.4565 24.0234ZM13.1945 19.9847H15.7186L16.1477 21.4992H12.7653L13.1945 19.9847ZM11.2004 27.0523L11.7052 25.033H12.4372V27.0523H11.2004ZM13.4469 27.0523V25.033H15.4662V27.0523H13.4469ZM17.7127 27.0523H16.4759V25.033H17.2079L17.7127 27.0523Z" fill="white"/>
</g>
<g clip-path="url(#clip1_7_8)">
<path d="M29.9055 19.3133C29.7258 19.3133 29.4821 19.2621 29.237 19.1728C28.8607 19.036 28.5698 18.8449 28.4959 18.6861C28.4664 18.6227 28.4736 18.5727 28.4847 18.5419C28.5185 18.449 28.6238 18.4019 28.7977 18.4019C28.9775 18.4019 29.2211 18.4531 29.4664 18.5424C29.6843 18.6216 29.8809 18.7223 30.02 18.8259C30.1897 18.9523 30.2566 19.0691 30.2187 19.173C30.185 19.2661 30.0795 19.3133 29.9055 19.3133ZM28.7976 18.5696C28.6882 18.5696 28.6476 18.5925 28.6416 18.6004C28.6387 18.6463 28.8332 18.8475 29.2944 19.0152C29.5218 19.098 29.7446 19.1455 29.9055 19.1455C30.0151 19.1455 30.0559 19.1226 30.0616 19.1145C30.0647 19.0687 29.8701 18.8677 29.409 18.7C29.1813 18.6171 28.9585 18.5696 28.7976 18.5696ZM29.3829 20.3274C29.3792 20.3274 29.3756 20.3272 29.372 20.3267C29.2172 20.3067 29.0416 20.2621 28.864 20.1975C28.6872 20.1333 28.524 20.0549 28.3926 19.9707C28.3536 19.9457 28.3425 19.8939 28.3674 19.8548C28.3923 19.8157 28.4439 19.8044 28.4834 19.8295C28.6043 19.9071 28.7557 19.9798 28.9212 20.0398C29.0874 20.1003 29.2508 20.1419 29.3933 20.1603C29.4154 20.1631 29.4354 20.1746 29.4491 20.1922C29.4627 20.2098 29.4687 20.2321 29.4659 20.2542C29.4633 20.2744 29.4535 20.293 29.4382 20.3065C29.4229 20.3199 29.4032 20.3274 29.3829 20.3274Z" fill="white"/>
<path d="M27.4954 21.5894C27.4859 21.5894 27.4762 21.5877 27.4667 21.5843C27.4563 21.5806 27.4468 21.5748 27.4387 21.5674C27.4306 21.5599 27.424 21.5509 27.4193 21.541C27.4147 21.531 27.412 21.5202 27.4116 21.5092C27.4111 21.4982 27.4128 21.4872 27.4166 21.4768L28.4847 18.5419C28.4923 18.521 28.5079 18.504 28.5281 18.4946C28.5482 18.4852 28.5713 18.4842 28.5922 18.4918C28.6026 18.4956 28.6121 18.5013 28.6202 18.5088C28.6283 18.5162 28.6349 18.5252 28.6396 18.5351C28.6442 18.5451 28.6469 18.5559 28.6473 18.5669C28.6478 18.5779 28.6461 18.5889 28.6423 18.5993L27.5741 21.5342C27.5683 21.5503 27.5575 21.5643 27.5434 21.5742C27.5294 21.5841 27.5126 21.5894 27.4954 21.5894ZM29.2806 21.5896C29.2711 21.5896 29.2613 21.5879 29.252 21.5845C29.2416 21.5807 29.2321 21.575 29.224 21.5675C29.2158 21.5601 29.2093 21.5511 29.2046 21.5411C29.1999 21.5312 29.1973 21.5204 29.1968 21.5093C29.1963 21.4983 29.198 21.4873 29.2018 21.477L30.0611 19.1157C30.0769 19.0721 30.1252 19.0498 30.1686 19.0655C30.179 19.0693 30.1885 19.0751 30.1966 19.0825C30.2047 19.0899 30.2113 19.0989 30.2159 19.1089C30.2206 19.1189 30.2232 19.1297 30.2237 19.1407C30.2242 19.1517 30.2225 19.1627 30.2187 19.173L29.3594 21.5343C29.3536 21.5505 29.3429 21.5645 29.3288 21.5744C29.3147 21.5843 29.2978 21.5896 29.2806 21.5896ZM27.8625 21.5653C27.849 21.5653 27.8357 21.5621 27.8238 21.5558C27.8118 21.5496 27.8015 21.5406 27.7938 21.5295C27.786 21.5185 27.7811 21.5057 27.7793 21.4924C27.7776 21.479 27.7791 21.4654 27.7837 21.4527L28.3591 19.8714C28.3667 19.8506 28.3823 19.8336 28.4025 19.8242C28.4226 19.8148 28.4457 19.8138 28.4666 19.8213C28.4769 19.825 28.4864 19.8308 28.4946 19.8382C28.5027 19.8457 28.5093 19.8546 28.5139 19.8646C28.5186 19.8746 28.5212 19.8854 28.5217 19.8964C28.5222 19.9074 28.5205 19.9184 28.5167 19.9288L27.9413 21.5101C27.9354 21.5263 27.9247 21.5402 27.9106 21.5501C27.8965 21.56 27.8797 21.5653 27.8625 21.5653ZM28.9233 21.5896C28.9138 21.5896 28.9042 21.5879 28.8947 21.5845C28.8843 21.5807 28.8748 21.575 28.8667 21.5675C28.8585 21.5601 28.8519 21.5511 28.8473 21.5411C28.8426 21.5312 28.84 21.5204 28.8395 21.5093C28.839 21.4983 28.8407 21.4873 28.8445 21.477L29.3039 20.2148C29.3196 20.1713 29.3679 20.149 29.4113 20.1647C29.4217 20.1684 29.4312 20.1742 29.4393 20.1816C29.4475 20.1891 29.454 20.198 29.4587 20.208C29.4634 20.218 29.466 20.2288 29.4665 20.2398C29.467 20.2508 29.4653 20.2618 29.4615 20.2722L29.0021 21.5343C28.9962 21.5505 28.9855 21.5645 28.9714 21.5743C28.9573 21.5842 28.9405 21.5895 28.9233 21.5896ZM29.8091 22.4282H19.9111C19.8647 22.4282 19.8272 22.3907 19.8272 22.3443V21.841C19.8272 21.83 19.8293 21.8191 19.8336 21.8089C19.8378 21.7987 19.8439 21.7895 19.8517 21.7817C19.8595 21.7739 19.8688 21.7677 19.879 21.7635C19.8891 21.7593 19.9001 21.7571 19.9111 21.7571H24.2729C24.3193 21.7571 24.3568 21.7947 24.3568 21.841C24.3569 21.852 24.3547 21.8629 24.3505 21.8731C24.3463 21.8833 24.3401 21.8926 24.3323 21.9003C24.3245 21.9081 24.3152 21.9143 24.3051 21.9185C24.2949 21.9227 24.284 21.9249 24.2729 21.9249H19.995V22.2604H29.7253V21.9249H25.4473C25.4363 21.9249 25.4253 21.9227 25.4152 21.9185C25.405 21.9143 25.3957 21.9081 25.3879 21.9003C25.3802 21.8925 25.374 21.8833 25.3698 21.8731C25.3656 21.8629 25.3634 21.852 25.3634 21.841C25.3634 21.83 25.3656 21.8191 25.3698 21.8089C25.374 21.7987 25.3802 21.7895 25.3879 21.7817C25.3957 21.7739 25.405 21.7677 25.4152 21.7635C25.4253 21.7593 25.4363 21.7571 25.4473 21.7571H29.8091C29.8555 21.7571 29.893 21.7947 29.893 21.841V22.3443C29.893 22.3553 29.8909 22.3662 29.8867 22.3764C29.8824 22.3866 29.8763 22.3959 29.8685 22.4036C29.8607 22.4114 29.8514 22.4176 29.8412 22.4218C29.8311 22.426 29.8202 22.4282 29.8091 22.4282Z" fill="white"/>
<path d="M28.467 27.2933H21.2532C21.2339 27.2934 21.2152 27.2867 21.2002 27.2745C21.1853 27.2624 21.1749 27.2454 21.171 27.2265L20.1645 22.3613C20.16 22.3395 20.1643 22.3168 20.1766 22.2982C20.1888 22.2796 20.2079 22.2667 20.2297 22.2621C20.2745 22.2525 20.3194 22.2819 20.3288 22.3273L21.3215 27.1256H28.3987L29.3914 22.3273C29.4009 22.2819 29.4451 22.2525 29.4907 22.2621C29.5124 22.2667 29.5315 22.2797 29.5437 22.2983C29.5559 22.3168 29.5603 22.3395 29.5558 22.3613L28.5493 27.2265C28.5453 27.2454 28.535 27.2624 28.52 27.2745C28.5051 27.2867 28.4863 27.2934 28.467 27.2933Z" fill="white"/>
<path d="M28.467 27.2933C28.4532 27.2934 28.4396 27.29 28.4274 27.2835C28.4153 27.2769 28.4049 27.2675 28.3973 27.256C28.3911 27.2469 28.3869 27.2366 28.3847 27.2258C28.3826 27.215 28.3826 27.2038 28.3847 27.193C28.3869 27.1822 28.3912 27.1719 28.3973 27.1628C28.4034 27.1536 28.4113 27.1458 28.4205 27.1397L28.8953 26.8233L29.8485 22.2463C29.8578 22.201 29.9012 22.1711 29.9477 22.1813C29.9585 22.1835 29.9687 22.1879 29.9778 22.1941C29.9869 22.2003 29.9947 22.2082 30.0007 22.2175C30.0067 22.2267 30.0109 22.237 30.0129 22.2478C30.015 22.2586 30.0149 22.2697 30.0126 22.2805L29.0524 26.8911C29.048 26.9127 29.0352 26.9316 29.0169 26.9437L28.5136 27.2793C28.4998 27.2884 28.4836 27.2933 28.467 27.2933ZM24.8601 26.2868C24.6751 26.2868 24.5246 26.1364 24.5246 25.9513V23.6025C24.5246 23.4176 24.6751 23.267 24.8601 23.267C25.0452 23.267 25.1957 23.4176 25.1957 23.6025V25.9513C25.1957 26.1364 25.0452 26.2868 24.8601 26.2868ZM24.8601 23.4348C24.7676 23.4348 24.6923 23.5102 24.6923 23.6025V25.9513C24.6923 26.0438 24.7676 26.119 24.8601 26.119C24.9526 26.119 25.0279 26.0438 25.0279 25.9513V23.6025C25.0279 23.5102 24.9526 23.4348 24.8601 23.4348ZM23.0147 26.2868C22.8297 26.2868 22.6792 26.1364 22.6792 25.9513L22.5116 23.6086C22.5114 23.4176 22.6619 23.267 22.8469 23.267C23.032 23.267 23.1825 23.4176 23.1825 23.6026L23.35 25.9454C23.3502 26.1364 23.1997 26.2868 23.0147 26.2868ZM22.847 23.4348C22.7545 23.4348 22.6792 23.5102 22.6792 23.6025L22.8467 25.9453C22.847 26.0438 22.9222 26.119 23.0147 26.119C23.1072 26.119 23.1825 26.0438 23.1825 25.9512L23.015 23.6086C23.0147 23.5102 22.9394 23.4348 22.847 23.4348ZM26.7055 26.2868C26.5204 26.2868 26.37 26.1364 26.37 25.9513L26.5381 23.5966C26.5377 23.4176 26.6881 23.267 26.8733 23.267C27.0584 23.267 27.2088 23.4176 27.2088 23.6025L27.0407 25.9573C27.041 26.1364 26.8907 26.2868 26.7055 26.2868ZM26.8733 23.4348C26.7809 23.4348 26.7055 23.5102 26.7055 23.6025L26.5374 25.9573C26.5377 26.0438 26.6131 26.119 26.7055 26.119C26.7979 26.119 26.8733 26.0438 26.8733 25.9513L27.0414 23.5966C27.041 23.5102 26.9657 23.4348 26.8733 23.4348ZM19.9112 21.9249C19.8931 21.9249 19.8756 21.9192 19.8611 21.9085C19.8466 21.8978 19.8359 21.8827 19.8307 21.8654C19.8255 21.8482 19.8259 21.8297 19.832 21.8127C19.8381 21.7958 19.8495 21.7812 19.8645 21.7712L20.3678 21.4357C20.377 21.4296 20.3873 21.4253 20.3981 21.4232C20.4089 21.421 20.42 21.421 20.4308 21.4232C20.4416 21.4254 20.4519 21.4296 20.461 21.4358C20.4702 21.4419 20.4781 21.4498 20.4842 21.459C20.4903 21.4681 20.4945 21.4784 20.4967 21.4892C20.4988 21.5 20.4988 21.5111 20.4966 21.5219C20.4945 21.5328 20.4902 21.543 20.4841 21.5522C20.4779 21.5613 20.4701 21.5692 20.4609 21.5753L19.9576 21.9108C19.9438 21.92 19.9277 21.9249 19.9112 21.9249ZM29.8091 21.9249C29.7953 21.9249 29.7817 21.9215 29.7695 21.915C29.7574 21.9085 29.747 21.8991 29.7394 21.8876C29.7332 21.8784 29.729 21.8681 29.7268 21.8573C29.7247 21.8465 29.7247 21.8354 29.7268 21.8246C29.729 21.8138 29.7333 21.8035 29.7394 21.7943C29.7456 21.7852 29.7534 21.7773 29.7626 21.7712L30.2659 21.4357C30.2751 21.4296 30.2853 21.4253 30.2962 21.4232C30.307 21.421 30.3181 21.421 30.3289 21.4232C30.3397 21.4254 30.35 21.4296 30.3591 21.4358C30.3683 21.4419 30.3761 21.4498 30.3822 21.459C30.3884 21.4681 30.3926 21.4784 30.3948 21.4892C30.3969 21.5 30.3969 21.5111 30.3947 21.522C30.3926 21.5328 30.3883 21.543 30.3822 21.5522C30.376 21.5613 30.3681 21.5692 30.359 21.5753L29.8557 21.9108C29.8419 21.92 29.8257 21.9249 29.8091 21.9249Z" fill="white"/>
<path d="M29.8091 22.4282C29.7953 22.4282 29.7817 22.4248 29.7695 22.4183C29.7574 22.4118 29.747 22.4024 29.7394 22.3909C29.7332 22.3817 29.729 22.3714 29.7268 22.3606C29.7247 22.3498 29.7247 22.3387 29.7268 22.3279C29.729 22.3171 29.7333 22.3068 29.7394 22.2976C29.7456 22.2885 29.7534 22.2806 29.7626 22.2745L30.2659 21.939C30.2844 21.9272 30.3068 21.9231 30.3283 21.9276C30.3498 21.9321 30.3687 21.9449 30.3809 21.9632C30.3931 21.9814 30.3976 22.0038 30.3935 22.0253C30.3894 22.0469 30.377 22.066 30.359 22.0786L29.8557 22.4141C29.8419 22.4233 29.8257 22.4282 29.8091 22.4282ZM30.3124 21.5894H30.1447C30.1337 21.5894 30.1227 21.5872 30.1126 21.583C30.1024 21.5788 30.0931 21.5726 30.0853 21.5648C30.0776 21.557 30.0714 21.5478 30.0672 21.5376C30.063 21.5274 30.0608 21.5165 30.0608 21.5055C30.0608 21.4945 30.063 21.4836 30.0672 21.4734C30.0714 21.4632 30.0776 21.454 30.0853 21.4462C30.0931 21.4384 30.1024 21.4322 30.1126 21.428C30.1227 21.4238 30.1337 21.4216 30.1447 21.4216H30.3124C30.3234 21.4216 30.3344 21.4238 30.3445 21.428C30.3547 21.4322 30.364 21.4384 30.3718 21.4462C30.3795 21.454 30.3857 21.4632 30.3899 21.4734C30.3941 21.4836 30.3963 21.4945 30.3963 21.5055C30.3963 21.5165 30.3941 21.5274 30.3899 21.5376C30.3857 21.5478 30.3795 21.557 30.3717 21.5648C30.364 21.5726 30.3547 21.5788 30.3445 21.583C30.3344 21.5872 30.3234 21.5894 30.3124 21.5894ZM20.5821 21.5894H20.4143C20.4033 21.5894 20.3924 21.5872 20.3822 21.583C20.3721 21.5788 20.3628 21.5726 20.355 21.5648C20.3472 21.557 20.3411 21.5478 20.3368 21.5376C20.3326 21.5274 20.3305 21.5165 20.3305 21.5055C20.3305 21.4945 20.3326 21.4836 20.3368 21.4734C20.3411 21.4632 20.3472 21.454 20.355 21.4462C20.3628 21.4384 20.3721 21.4322 20.3822 21.428C20.3924 21.4238 20.4033 21.4216 20.4143 21.4216H20.5821C20.5931 21.4216 20.6041 21.4238 20.6142 21.428C20.6244 21.4322 20.6337 21.4384 20.6415 21.4462C20.6492 21.454 20.6554 21.4632 20.6596 21.4734C20.6638 21.4836 20.666 21.4945 20.666 21.5055C20.666 21.5165 20.6638 21.5274 20.6596 21.5376C20.6554 21.5478 20.6492 21.557 20.6415 21.5648C20.6337 21.5726 20.6244 21.5788 20.6142 21.583C20.6041 21.5872 20.5931 21.5894 20.5821 21.5894Z" fill="white"/>
<path d="M30.3124 22.0927C30.3014 22.0927 30.2905 22.0905 30.2803 22.0863C30.2701 22.0821 30.2609 22.0759 30.2531 22.0681C30.2453 22.0603 30.2391 22.0511 30.2349 22.0409C30.2307 22.0307 30.2285 22.0198 30.2285 22.0088V21.5055C30.2285 21.4945 30.2307 21.4836 30.2349 21.4734C30.2391 21.4632 30.2453 21.454 30.2531 21.4462C30.2609 21.4384 30.2701 21.4322 30.2803 21.428C30.2905 21.4238 30.3014 21.4216 30.3124 21.4216C30.3234 21.4216 30.3344 21.4238 30.3445 21.428C30.3547 21.4322 30.364 21.4384 30.3718 21.4462C30.3795 21.454 30.3857 21.4632 30.3899 21.4734C30.3941 21.4836 30.3963 21.4945 30.3963 21.5055V22.0088C30.3963 22.0198 30.3941 22.0307 30.3899 22.0409C30.3857 22.0511 30.3795 22.0603 30.3717 22.0681C30.364 22.0759 30.3547 22.0821 30.3445 22.0863C30.3344 22.0905 30.3234 22.0927 30.3124 22.0927ZM25.1118 22.1766C25.1007 22.1766 25.0898 22.1744 25.0796 22.1702C25.0695 22.166 25.0602 22.1598 25.0524 22.152C25.0446 22.1442 25.0385 22.135 25.0342 22.1248C25.03 22.1146 25.0279 22.1037 25.0279 22.0927V18.5696H24.6923V22.0927C24.6923 22.139 24.6548 22.1766 24.6085 22.1766C24.5621 22.1766 24.5246 22.139 24.5246 22.0927V18.4857C24.5246 18.4747 24.5267 18.4638 24.531 18.4536C24.5352 18.4435 24.5413 18.4342 24.5491 18.4264C24.5569 18.4186 24.5662 18.4124 24.5764 18.4082C24.5865 18.404 24.5974 18.4019 24.6085 18.4019H25.1118C25.1228 18.4019 25.1337 18.404 25.1439 18.4082C25.154 18.4124 25.1633 18.4186 25.1711 18.4264C25.1789 18.4342 25.185 18.4435 25.1893 18.4536C25.1935 18.4638 25.1956 18.4747 25.1956 18.4857V22.0927C25.1956 22.1037 25.1935 22.1146 25.1893 22.1248C25.1851 22.135 25.1789 22.1442 25.1711 22.152C25.1633 22.1598 25.154 22.166 25.1439 22.1702C25.1337 22.1744 25.1228 22.1766 25.1118 22.1766ZM25.615 21.2539C25.604 21.2539 25.5931 21.2517 25.5829 21.2475C25.5728 21.2433 25.5635 21.2371 25.5557 21.2293C25.5479 21.2215 25.5417 21.2123 25.5375 21.2021C25.5333 21.1919 25.5312 21.181 25.5312 21.17V18.1502C25.5312 18.1038 25.5687 18.0663 25.615 18.0663C25.6261 18.0663 25.637 18.0685 25.6472 18.0727C25.6573 18.0769 25.6666 18.0831 25.6744 18.0909C25.6822 18.0987 25.6883 18.1079 25.6926 18.1181C25.6968 18.1283 25.6989 18.1392 25.6989 18.1502V21.17C25.6989 21.181 25.6968 21.1919 25.6925 21.2021C25.6883 21.2123 25.6822 21.2215 25.6744 21.2293C25.6666 21.2371 25.6573 21.2433 25.6471 21.2475C25.637 21.2517 25.6261 21.2539 25.615 21.2539Z" fill="white"/>
<path d="M25.1118 18.5696C25.098 18.5696 25.0844 18.5663 25.0722 18.5597C25.06 18.5532 25.0496 18.5438 25.042 18.5323C25.0358 18.5231 25.0316 18.5128 25.0295 18.502C25.0273 18.4912 25.0273 18.4801 25.0295 18.4693C25.0316 18.4585 25.0359 18.4482 25.042 18.4391C25.0482 18.4299 25.0561 18.4221 25.0652 18.416L25.5685 18.0804C25.6072 18.0546 25.6591 18.0651 25.6848 18.1037C25.7106 18.1423 25.7002 18.1943 25.6616 18.22L25.1583 18.5555C25.1445 18.5647 25.1284 18.5696 25.1118 18.5696ZM24.6085 18.5696C24.5947 18.5696 24.5811 18.5663 24.5689 18.5597C24.5567 18.5532 24.5463 18.5438 24.5387 18.5323C24.5326 18.5231 24.5283 18.5128 24.5262 18.502C24.524 18.4912 24.524 18.4801 24.5262 18.4693C24.5283 18.4585 24.5326 18.4482 24.5388 18.4391C24.5449 18.4299 24.5528 18.4221 24.5619 18.416L25.0652 18.0804C25.0744 18.0743 25.0847 18.07 25.0955 18.0679C25.1063 18.0658 25.1174 18.0658 25.1282 18.0679C25.139 18.0701 25.1493 18.0744 25.1584 18.0805C25.1676 18.0866 25.1754 18.0945 25.1815 18.1037C25.1877 18.1128 25.1919 18.1231 25.194 18.1339C25.1962 18.1447 25.1962 18.1559 25.194 18.1667C25.1919 18.1775 25.1876 18.1877 25.1815 18.1969C25.1753 18.206 25.1674 18.2139 25.1583 18.22L24.655 18.5555C24.6412 18.5647 24.6251 18.5696 24.6085 18.5696ZM25.7828 21.5894H25.4473C25.4362 21.5894 25.4253 21.5872 25.4152 21.583C25.405 21.5788 25.3957 21.5726 25.3879 21.5648C25.3802 21.557 25.374 21.5478 25.3698 21.5376C25.3656 21.5274 25.3634 21.5165 25.3634 21.5055C25.3634 21.4945 25.3656 21.4836 25.3698 21.4734C25.374 21.4632 25.3802 21.454 25.3879 21.4462C25.3957 21.4384 25.405 21.4322 25.4152 21.428C25.4253 21.4238 25.4362 21.4216 25.4473 21.4216H25.7828C25.7938 21.4216 25.8047 21.4238 25.8149 21.428C25.8251 21.4322 25.8343 21.4384 25.8421 21.4462C25.8499 21.454 25.8561 21.4632 25.8603 21.4734C25.8645 21.4836 25.8667 21.4945 25.8667 21.5055C25.8667 21.5165 25.8645 21.5274 25.8603 21.5376C25.8561 21.5478 25.8499 21.557 25.8421 21.5648C25.8343 21.5726 25.8251 21.5788 25.8149 21.583C25.8047 21.5872 25.7938 21.5894 25.7828 21.5894ZM29.8091 21.5894C29.7926 21.5894 29.7764 21.5845 29.7626 21.5753C29.7534 21.5692 29.7455 21.5613 29.7394 21.5522C29.7333 21.543 29.729 21.5328 29.7268 21.522C29.7247 21.5111 29.7247 21.5 29.7268 21.4892C29.729 21.4784 29.7332 21.4681 29.7393 21.459L30.4104 20.4524C30.436 20.4137 30.4879 20.4034 30.5267 20.4291C30.5359 20.4352 30.5438 20.4431 30.5499 20.4522C30.5561 20.4614 30.5604 20.4717 30.5625 20.4825C30.5647 20.4933 30.5647 20.5044 30.5625 20.5152C30.5604 20.526 30.5561 20.5363 30.55 20.5454L29.8789 21.552C29.8713 21.5635 29.8609 21.573 29.8487 21.5795C29.8366 21.586 29.8229 21.5894 29.8091 21.5894Z" fill="white"/>
<path d="M30.4802 20.5828H29.9769C29.9659 20.5828 29.955 20.5806 29.9448 20.5764C29.9346 20.5722 29.9254 20.566 29.9176 20.5582C29.9098 20.5504 29.9036 20.5412 29.8994 20.531C29.8952 20.5208 29.893 20.5099 29.893 20.4989C29.893 20.4879 29.8952 20.477 29.8994 20.4668C29.9036 20.4566 29.9098 20.4474 29.9176 20.4396C29.9254 20.4318 29.9346 20.4256 29.9448 20.4214C29.955 20.4172 29.9659 20.415 29.9769 20.415H30.4802C30.4912 20.415 30.5021 20.4172 30.5123 20.4214C30.5225 20.4256 30.5317 20.4318 30.5395 20.4396C30.5473 20.4474 30.5535 20.4566 30.5577 20.4668C30.5619 20.477 30.5641 20.4879 30.5641 20.4989C30.5641 20.5099 30.5619 20.5208 30.5577 20.531C30.5535 20.5412 30.5473 20.5504 30.5395 20.5582C30.5317 20.566 30.5225 20.5722 30.5123 20.5764C30.5021 20.5806 30.4912 20.5828 30.4802 20.5828ZM23.2664 21.5896C23.22 21.5896 23.1825 21.552 23.1825 21.5057V20.5828H21.6726V21.5057C21.6726 21.5167 21.6705 21.5276 21.6662 21.5378C21.662 21.548 21.6558 21.5572 21.6481 21.565C21.6403 21.5728 21.631 21.579 21.6208 21.5832C21.6107 21.5874 21.5997 21.5896 21.5887 21.5896C21.5424 21.5896 21.5048 21.552 21.5048 21.5057V20.4989C21.5048 20.4879 21.507 20.477 21.5112 20.4668C21.5154 20.4566 21.5216 20.4474 21.5294 20.4396C21.5372 20.4318 21.5464 20.4256 21.5566 20.4214C21.5668 20.4172 21.5777 20.415 21.5887 20.415H23.2664C23.2774 20.415 23.2883 20.4172 23.2985 20.4214C23.3086 20.4256 23.3179 20.4318 23.3257 20.4396C23.3335 20.4474 23.3397 20.4566 23.3439 20.4668C23.3481 20.477 23.3502 20.4879 23.3502 20.4989V21.5057C23.3502 21.5167 23.3481 21.5276 23.3439 21.5378C23.3396 21.548 23.3335 21.5572 23.3257 21.565C23.3179 21.5728 23.3086 21.579 23.2985 21.5832C23.2883 21.5874 23.2774 21.5896 23.2664 21.5896ZM24.2729 21.5894H23.6019C23.5909 21.5894 23.58 21.5872 23.5698 21.583C23.5596 21.5788 23.5503 21.5726 23.5426 21.5648C23.5348 21.557 23.5286 21.5478 23.5244 21.5376C23.5202 21.5274 23.518 21.5165 23.518 21.5055C23.518 21.4945 23.5202 21.4836 23.5244 21.4734C23.5286 21.4632 23.5348 21.454 23.5426 21.4462C23.5503 21.4384 23.5596 21.4322 23.5698 21.428C23.58 21.4238 23.5909 21.4216 23.6019 21.4216H24.2729C24.2952 21.4216 24.3165 21.4305 24.3323 21.4462C24.348 21.4619 24.3568 21.4833 24.3568 21.5055C24.3568 21.5278 24.348 21.5491 24.3323 21.5648C24.3165 21.5805 24.2952 21.5894 24.2729 21.5894Z" fill="white"/>
<path d="M23.2664 20.5828C23.2526 20.5828 23.239 20.5794 23.2268 20.5729C23.2146 20.5664 23.2042 20.5569 23.1966 20.5454L22.861 20.0421C22.8549 20.033 22.8507 20.0227 22.8485 20.0119C22.8464 20.0011 22.8464 19.99 22.8485 19.9792C22.8507 19.9684 22.855 19.9581 22.8611 19.9489C22.8672 19.9398 22.8751 19.9319 22.8843 19.9258C22.8934 19.9197 22.9037 19.9155 22.9145 19.9133C22.9253 19.9112 22.9365 19.9112 22.9473 19.9133C22.9581 19.9155 22.9683 19.9198 22.9775 19.9259C22.9866 19.932 22.9945 19.9399 23.0006 19.9491L23.3361 20.4524C23.3446 20.465 23.3494 20.4797 23.3502 20.4948C23.3509 20.51 23.3475 20.5251 23.3404 20.5385C23.3332 20.5519 23.3226 20.563 23.3096 20.5709C23.2965 20.5787 23.2816 20.5828 23.2664 20.5828Z" fill="white"/>
<path d="M22.9308 20.0795H21.2532C21.2422 20.0795 21.2313 20.0773 21.2211 20.0731C21.2109 20.0689 21.2017 20.0627 21.1939 20.0549C21.1861 20.0471 21.1799 20.0379 21.1757 20.0277C21.1715 20.0175 21.1693 20.0066 21.1693 19.9956C21.1693 19.9846 21.1715 19.9737 21.1757 19.9635C21.1799 19.9533 21.1861 19.9441 21.1939 19.9363C21.2017 19.9285 21.2109 19.9223 21.2211 19.9181C21.2313 19.9139 21.2422 19.9117 21.2532 19.9117H22.9308C22.9418 19.9117 22.9528 19.9139 22.9629 19.9181C22.9731 19.9223 22.9824 19.9285 22.9902 19.9363C22.9979 19.9441 23.0041 19.9533 23.0083 19.9635C23.0125 19.9737 23.0147 19.9846 23.0147 19.9956C23.0147 20.0066 23.0125 20.0175 23.0083 20.0277C23.0041 20.0379 22.9979 20.0471 22.9902 20.0549C22.9824 20.0627 22.9731 20.0689 22.9629 20.0731C22.9528 20.0773 22.9418 20.0795 22.9308 20.0795Z" fill="white"/>
<path d="M21.5888 20.5828C21.575 20.5828 21.5614 20.5794 21.5492 20.5729C21.537 20.5664 21.5266 20.5569 21.5189 20.5454L21.1834 20.0421C21.1773 20.033 21.173 20.0227 21.1709 20.0119C21.1688 20.0011 21.1688 19.99 21.1709 19.9792C21.1731 19.9684 21.1774 19.9581 21.1835 19.9489C21.1896 19.9398 21.1975 19.9319 21.2067 19.9258C21.2158 19.9197 21.2261 19.9155 21.2369 19.9133C21.2477 19.9112 21.2588 19.9112 21.2696 19.9133C21.2804 19.9155 21.2907 19.9198 21.2999 19.9259C21.309 19.932 21.3169 19.9399 21.323 19.9491L21.6585 20.4524C21.667 20.465 21.6718 20.4797 21.6726 20.4948C21.6733 20.51 21.6699 20.5251 21.6628 20.5385C21.6556 20.5519 21.645 20.5631 21.6319 20.5709C21.6189 20.5787 21.604 20.5828 21.5888 20.5828Z" fill="white"/>
<path d="M20.9176 20.5828C20.9024 20.5828 20.8875 20.5787 20.8745 20.5709C20.8614 20.5631 20.8508 20.5519 20.8436 20.5385C20.8365 20.5251 20.8331 20.51 20.8338 20.4948C20.8346 20.4797 20.8394 20.465 20.8479 20.4524L21.1834 19.9491C21.1895 19.9399 21.1974 19.932 21.2065 19.9259C21.2157 19.9197 21.2259 19.9155 21.2367 19.9133C21.2475 19.9111 21.2587 19.9111 21.2695 19.9133C21.2803 19.9154 21.2906 19.9197 21.2997 19.9258C21.3089 19.9319 21.3168 19.9398 21.3229 19.9489C21.329 19.9581 21.3333 19.9684 21.3355 19.9792C21.3376 19.99 21.3376 20.0011 21.3355 20.0119C21.3333 20.0227 21.3291 20.033 21.323 20.0421L20.9875 20.5454C20.9798 20.5569 20.9694 20.5664 20.9572 20.5729C20.945 20.5794 20.9314 20.5828 20.9176 20.5828Z" fill="white"/>
<path d="M20.9177 21.5894C20.8713 21.5894 20.8338 21.5519 20.8338 21.5055V20.4989C20.8338 20.4525 20.8713 20.415 20.9177 20.415C20.964 20.415 21.0015 20.4525 21.0015 20.4989V21.5055C21.0015 21.5165 20.9994 21.5274 20.9952 21.5376C20.991 21.5478 20.9848 21.557 20.977 21.5648C20.9692 21.5726 20.9599 21.5788 20.9498 21.583C20.9396 21.5872 20.9287 21.5894 20.9177 21.5894ZM21.2532 21.5894C21.2422 21.5894 21.2313 21.5872 21.2211 21.583C21.2109 21.5788 21.2017 21.5726 21.1939 21.5648C21.1861 21.557 21.1799 21.5478 21.1757 21.5376C21.1715 21.5274 21.1693 21.5165 21.1693 21.5055V20.6667C21.1693 20.6203 21.2068 20.5828 21.2532 20.5828C21.2996 20.5828 21.3371 20.6203 21.3371 20.6667V21.5055C21.3371 21.5165 21.3349 21.5274 21.3307 21.5376C21.3265 21.5478 21.3203 21.557 21.3125 21.5648C21.3047 21.5726 21.2955 21.5788 21.2853 21.583C21.2751 21.5872 21.2642 21.5894 21.2532 21.5894ZM22.9308 20.0795H21.2532C21.2422 20.0795 21.2313 20.0773 21.2211 20.0731C21.2109 20.0689 21.2017 20.0627 21.1939 20.0549C21.1861 20.0471 21.1799 20.0379 21.1757 20.0277C21.1715 20.0175 21.1693 20.0066 21.1693 19.9956V19.6601C21.1693 19.6491 21.1715 19.6381 21.1757 19.628C21.1799 19.6178 21.1861 19.6085 21.1939 19.6008C21.2017 19.593 21.2109 19.5868 21.2211 19.5826C21.2313 19.5784 21.2422 19.5762 21.2532 19.5762H22.9308C22.9418 19.5762 22.9528 19.5784 22.9629 19.5826C22.9731 19.5868 22.9824 19.593 22.9902 19.6008C22.9979 19.6085 23.0041 19.6178 23.0083 19.628C23.0125 19.6381 23.0147 19.6491 23.0147 19.6601V19.9956C23.0147 20.0066 23.0125 20.0175 23.0083 20.0277C23.0041 20.0379 22.9979 20.0471 22.9902 20.0549C22.9824 20.0627 22.9731 20.0689 22.9629 20.0731C22.9528 20.0773 22.9418 20.0795 22.9308 20.0795ZM21.3371 19.9117H22.847V19.744H21.3371V19.9117ZM25.615 18.2341H25.1118C25.1007 18.2341 25.0898 18.2319 25.0796 18.2277C25.0695 18.2235 25.0602 18.2173 25.0524 18.2095C25.0446 18.2018 25.0385 18.1925 25.0342 18.1823C25.03 18.1721 25.0279 18.1612 25.0279 18.1502C25.0279 18.1038 25.0654 18.0663 25.1118 18.0663H25.615C25.6261 18.0663 25.637 18.0685 25.6472 18.0727C25.6573 18.0769 25.6666 18.0831 25.6744 18.0909C25.6822 18.0987 25.6883 18.1079 25.6926 18.1181C25.6968 18.1283 25.6989 18.1392 25.6989 18.1502C25.6989 18.1612 25.6968 18.1721 25.6925 18.1823C25.6883 18.1925 25.6822 18.2018 25.6744 18.2095C25.6666 18.2173 25.6573 18.2235 25.6472 18.2277C25.637 18.2319 25.6261 18.2341 25.615 18.2341ZM27.1249 21.5894C27.0785 21.5894 27.041 21.5519 27.041 21.5055C27.041 21.2743 26.8529 21.0861 26.6216 21.0861C26.3903 21.0861 26.2022 21.2743 26.2022 21.5055C26.2022 21.5165 26.2001 21.5274 26.1958 21.5376C26.1916 21.5478 26.1854 21.557 26.1777 21.5648C26.1699 21.5726 26.1606 21.5788 26.1504 21.583C26.1403 21.5872 26.1294 21.5894 26.1183 21.5894C26.1073 21.5894 26.0964 21.5872 26.0862 21.583C26.0761 21.5788 26.0668 21.5726 26.059 21.5648C26.0512 21.557 26.045 21.5478 26.0408 21.5376C26.0366 21.5274 26.0345 21.5165 26.0345 21.5055C26.0345 21.1818 26.2979 20.9183 26.6216 20.9183C26.9454 20.9183 27.2088 21.1818 27.2088 21.5055C27.2088 21.5165 27.2066 21.5274 27.2024 21.5376C27.1982 21.5478 27.192 21.557 27.1842 21.5648C27.1765 21.5726 27.1672 21.5788 27.157 21.583C27.1468 21.5872 27.1359 21.5894 27.1249 21.5894ZM26.7894 20.7506H26.4538C26.4428 20.7506 26.4319 20.7484 26.4217 20.7442C26.4116 20.74 26.4023 20.7338 26.3945 20.726C26.3867 20.7182 26.3806 20.709 26.3763 20.6988C26.3721 20.6886 26.37 20.6777 26.37 20.6667C26.37 20.6557 26.3721 20.6448 26.3763 20.6346C26.3806 20.6244 26.3867 20.6151 26.3945 20.6074C26.4023 20.5996 26.4116 20.5934 26.4217 20.5892C26.4319 20.585 26.4428 20.5828 26.4538 20.5828H26.7894C26.8004 20.5828 26.8113 20.585 26.8215 20.5892C26.8317 20.5934 26.8409 20.5996 26.8487 20.6074C26.8565 20.6151 26.8627 20.6244 26.8669 20.6346C26.8711 20.6448 26.8733 20.6557 26.8733 20.6667C26.8733 20.6777 26.8711 20.6886 26.8669 20.6988C26.8627 20.709 26.8565 20.7182 26.8487 20.726C26.8409 20.7338 26.8317 20.74 26.8215 20.7442C26.8113 20.7484 26.8004 20.7506 26.7894 20.7506Z" fill="white"/>
<path d="M26.4538 20.9183C26.4428 20.9183 26.4319 20.9162 26.4217 20.912C26.4116 20.9077 26.4023 20.9016 26.3945 20.8938C26.3867 20.886 26.3805 20.8767 26.3763 20.8665C26.3721 20.8564 26.37 20.8455 26.37 20.8344V20.6667C26.37 20.6557 26.3721 20.6448 26.3763 20.6346C26.3806 20.6244 26.3867 20.6151 26.3945 20.6074C26.4023 20.5996 26.4116 20.5934 26.4217 20.5892C26.4319 20.585 26.4428 20.5828 26.4538 20.5828C26.5002 20.5828 26.5377 20.6203 26.5377 20.6667V20.8344C26.5377 20.8808 26.5002 20.9183 26.4538 20.9183Z" fill="white"/>
<path d="M26.7894 20.9183C26.7784 20.9183 26.7675 20.9162 26.7573 20.912C26.7471 20.9077 26.7378 20.9016 26.7301 20.8938C26.7223 20.886 26.7161 20.8767 26.7119 20.8665C26.7077 20.8564 26.7055 20.8455 26.7055 20.8344V20.6667C26.7055 20.6203 26.743 20.5828 26.7894 20.5828C26.8357 20.5828 26.8733 20.6203 26.8733 20.6667V20.8344C26.8733 20.8808 26.8357 20.9183 26.7894 20.9183Z" fill="white"/>
<path d="M27.1249 20.5828C27.1197 20.5828 27.1141 20.5823 27.1085 20.5811L26.2697 20.4134C26.2589 20.4112 26.2486 20.407 26.2394 20.4009C26.2303 20.3947 26.2224 20.3869 26.2163 20.3777C26.2102 20.3685 26.2059 20.3582 26.2038 20.3474C26.2017 20.3366 26.2017 20.3255 26.2038 20.3147C26.213 20.2692 26.2569 20.2391 26.3025 20.2489L27.1413 20.4167C27.1521 20.4188 27.1624 20.4231 27.1716 20.4292C27.1807 20.4353 27.1886 20.4432 27.1947 20.4523C27.2008 20.4615 27.2051 20.4718 27.2072 20.4826C27.2094 20.4934 27.2093 20.5046 27.2072 20.5154C27.2034 20.5344 27.1931 20.5515 27.1781 20.5638C27.1631 20.5761 27.1443 20.5828 27.1249 20.5828Z" fill="white"/>
<path d="M26.2861 20.7506C26.2751 20.7506 26.2642 20.7484 26.254 20.7442C26.2438 20.74 26.2346 20.7338 26.2268 20.726C26.219 20.7182 26.2128 20.709 26.2086 20.6988C26.2044 20.6886 26.2022 20.6777 26.2022 20.6667V20.3312C26.2022 20.2848 26.2397 20.2473 26.2861 20.2473C26.3325 20.2473 26.37 20.2848 26.37 20.3312V20.6667C26.37 20.6777 26.3678 20.6886 26.3636 20.6988C26.3594 20.709 26.3532 20.7182 26.3454 20.726C26.3376 20.7338 26.3284 20.74 26.3182 20.7442C26.308 20.7484 26.2971 20.7506 26.2861 20.7506Z" fill="white"/>
<path d="M27.1249 20.7506H26.2861C26.2751 20.7506 26.2642 20.7484 26.254 20.7442C26.2438 20.74 26.2346 20.7338 26.2268 20.726C26.219 20.7182 26.2128 20.709 26.2086 20.6988C26.2044 20.6886 26.2022 20.6777 26.2022 20.6667C26.2022 20.6557 26.2044 20.6448 26.2086 20.6346C26.2128 20.6244 26.219 20.6151 26.2268 20.6074C26.2346 20.5996 26.2438 20.5934 26.254 20.5892C26.2642 20.585 26.2751 20.5828 26.2861 20.5828H27.1249C27.1359 20.5828 27.1468 20.585 27.157 20.5892C27.1672 20.5934 27.1765 20.5996 27.1842 20.6074C27.192 20.6151 27.1982 20.6244 27.2024 20.6346C27.2066 20.6448 27.2088 20.6557 27.2088 20.6667C27.2088 20.6777 27.2066 20.6886 27.2024 20.6988C27.1982 20.709 27.192 20.7182 27.1842 20.726C27.1765 20.7338 27.1672 20.74 27.157 20.7442C27.1468 20.7484 27.1359 20.7506 27.1249 20.7506Z" fill="white"/>
<path d="M27.1249 20.7506C27.0785 20.7506 27.041 20.7131 27.041 20.6667V20.4989C27.041 20.4879 27.0432 20.477 27.0474 20.4668C27.0516 20.4566 27.0578 20.4474 27.0656 20.4396C27.0734 20.4318 27.0826 20.4256 27.0928 20.4214C27.103 20.4172 27.1139 20.415 27.1249 20.415C27.1359 20.415 27.1468 20.4172 27.157 20.4214C27.1672 20.4256 27.1765 20.4318 27.1842 20.4396C27.192 20.4474 27.1982 20.4566 27.2024 20.4668C27.2066 20.477 27.2088 20.4879 27.2088 20.4989V20.6667C27.2088 20.6777 27.2066 20.6886 27.2024 20.6988C27.1982 20.709 27.192 20.7182 27.1842 20.726C27.1765 20.7338 27.1672 20.74 27.157 20.7442C27.1468 20.7484 27.1359 20.7506 27.1249 20.7506Z" fill="white"/>
<path d="M22.8026 21.5892C22.7908 21.5892 22.7792 21.5868 22.7684 21.5819C22.7576 21.5771 22.748 21.5701 22.7401 21.5613C22.5814 21.384 22.2746 21.3836 22.1152 21.5612C22.1079 21.5694 22.099 21.5761 22.089 21.5809C22.0791 21.5856 22.0683 21.5884 22.0573 21.589C22.0463 21.5896 22.0353 21.588 22.0249 21.5843C22.0145 21.5807 22.0049 21.575 21.9968 21.5676C21.9886 21.5602 21.9819 21.5513 21.9771 21.5414C21.9724 21.5315 21.9696 21.5207 21.969 21.5097C21.9684 21.4987 21.97 21.4877 21.9737 21.4773C21.9773 21.4669 21.983 21.4573 21.9904 21.4491C22.0455 21.3878 22.1129 21.3386 22.1882 21.305C22.2635 21.2714 22.345 21.2539 22.4275 21.2539C22.5101 21.2539 22.5918 21.2713 22.6672 21.305C22.7426 21.3387 22.81 21.3879 22.8651 21.4494C22.8759 21.4615 22.883 21.4764 22.8855 21.4924C22.8879 21.5084 22.8858 21.5248 22.8791 21.5395C22.8725 21.5543 22.8618 21.5669 22.8482 21.5757C22.8347 21.5845 22.8188 21.5892 22.8026 21.5892Z" fill="white"/>
<path d="M25.1118 22.1766H24.6085C24.5974 22.1766 24.5865 22.1744 24.5764 22.1702C24.5662 22.166 24.5569 22.1598 24.5491 22.152C24.5413 22.1442 24.5352 22.135 24.531 22.1248C24.5267 22.1146 24.5246 22.1037 24.5246 22.0927C24.5246 22.0817 24.5267 22.0707 24.531 22.0606C24.5352 22.0504 24.5413 22.0411 24.5491 22.0334C24.5569 22.0256 24.5662 22.0194 24.5764 22.0152C24.5865 22.011 24.5974 22.0088 24.6085 22.0088H25.1118C25.1228 22.0088 25.1337 22.011 25.1439 22.0152C25.154 22.0194 25.1633 22.0256 25.1711 22.0334C25.1789 22.0411 25.185 22.0504 25.1893 22.0606C25.1935 22.0707 25.1956 22.0817 25.1956 22.0927C25.1956 22.1037 25.1935 22.1146 25.1893 22.1248C25.1851 22.135 25.1789 22.1442 25.1711 22.152C25.1633 22.1598 25.154 22.166 25.1439 22.1702C25.1337 22.1744 25.1228 22.1766 25.1118 22.1766Z" fill="white"/>
</g>
<defs>
<clipPath id="clip0_7_8">
<rect width="9.08695" height="9.08695" fill="white" transform="translate(9.91306 18.9624)"/>
</clipPath>
<clipPath id="clip1_7_8">
<rect width="10.7391" height="10.7391" fill="white" transform="translate(19.8261 17.3102)"/>
</clipPath>
</defs>
</svg>
